<?xml version="1.0" encoding="utf-8"?>
<svg version="1.1" xmlns:xlink="http://www.w3.org/1999/xlink" width="239px" height="45px" xmlns="http://www.w3.org/2000/svg">
  <defs>
    <filter x="143px" y="14px" width="239px" height="45px" filterUnits="userSpaceOnUse" id="filter82">
      <feOffset dx="5" dy="5" in="SourceAlpha" result="shadowOffsetInner" />
      <feGaussianBlur stdDeviation="2.5" in="shadowOffsetInner" result="shadowGaussian" />
      <feComposite in2="shadowGaussian" operator="atop" in="SourceAlpha" result="shadowComposite" />
      <feColorMatrix type="matrix" values="0 0 0 0 0  0 0 0 0 0  0 0 0 0 0  0 0 0 0.349019607843137 0  " in="shadowComposite" />
    </filter>
    <g id="widget83">
      <path d="M 143.5 19  A 4.5 4.5 0 0 1 148 14.5 L 367 14.5  A 4.5 4.5 0 0 1 371.5 19 L 371.5 44  A 4.5 4.5 0 0 1 367 48.5 L 148 48.5  A 4.5 4.5 0 0 1 143.5 44 L 143.5 19  Z " fill-rule="nonzero" fill="#ffffff" stroke="none" fill-opacity="0.874509803921569" />
      <path d="M 143.5 19  A 4.5 4.5 0 0 1 148 14.5 L 367 14.5  A 4.5 4.5 0 0 1 371.5 19 L 371.5 44  A 4.5 4.5 0 0 1 367 48.5 L 148 48.5  A 4.5 4.5 0 0 1 143.5 44 L 143.5 19  Z " stroke-width="1" stroke="#000000" fill="none" />
    </g>
  </defs>
  <g transform="matrix(1 0 0 1 -143 -14 )">
    <use xlink:href="#widget83" filter="url(#filter82)" />
    <use xlink:href="#widget83" />
  </g>
</svg>