<?xml version="1.0" encoding="utf-8"?>
<svg version="1.1" xmlns:xlink="http://www.w3.org/1999/xlink" width="273px" height="125px" xmlns="http://www.w3.org/2000/svg">
  <defs>
    <filter x="41px" y="319px" width="273px" height="125px" filterUnits="userSpaceOnUse" id="filter84">
      <feOffset dx="5" dy="5" in="SourceAlpha" result="shadowOffsetInner" />
      <feGaussianBlur stdDeviation="2.5" in="shadowOffsetInner" result="shadowGaussian" />
      <feComposite in2="shadowGaussian" operator="atop" in="SourceAlpha" result="shadowComposite" />
      <feColorMatrix type="matrix" values="0 0 0 0 0  0 0 0 0 0  0 0 0 0 0  0 0 0 0.349019607843137 0  " in="shadowComposite" />
    </filter>
    <g id="widget85">
      <path d="M 41.5 324  A 4.5 4.5 0 0 1 46 319.5 L 299 319.5  A 4.5 4.5 0 0 1 303.5 324 L 303.5 429  A 4.5 4.5 0 0 1 299 433.5 L 46 433.5  A 4.5 4.5 0 0 1 41.5 429 L 41.5 324  Z " fill-rule="nonzero" fill="#ffffff" stroke="none" fill-opacity="0.874509803921569" />
      <path d="M 41.5 324  A 4.5 4.5 0 0 1 46 319.5 L 299 319.5  A 4.5 4.5 0 0 1 303.5 324 L 303.5 429  A 4.5 4.5 0 0 1 299 433.5 L 46 433.5  A 4.5 4.5 0 0 1 41.5 429 L 41.5 324  Z " stroke-width="1" stroke="#000000" fill="none" />
    </g>
  </defs>
  <g transform="matrix(1 0 0 1 -41 -319 )">
    <use xlink:href="#widget85" filter="url(#filter84)" />
    <use xlink:href="#widget85" />
  </g>
</svg>