<?xml version="1.0" encoding="utf-8"?>
<svg version="1.1" xmlns:xlink="http://www.w3.org/1999/xlink" width="237px" height="81px" xmlns="http://www.w3.org/2000/svg">
  <defs>
    <filter x="144px" y="332px" width="237px" height="81px" filterUnits="userSpaceOnUse" id="filter86">
      <feOffset dx="5" dy="5" in="SourceAlpha" result="shadowOffsetInner" />
      <feGaussianBlur stdDeviation="2.5" in="shadowOffsetInner" result="shadowGaussian" />
      <feComposite in2="shadowGaussian" operator="atop" in="SourceAlpha" result="shadowComposite" />
      <feColorMatrix type="matrix" values="0 0 0 0 0  0 0 0 0 0  0 0 0 0 0  0 0 0 0.349019607843137 0  " in="shadowComposite" />
    </filter>
    <g id="widget87">
      <path d="M 144.5 337  A 4.5 4.5 0 0 1 149 332.5 L 366 332.5  A 4.5 4.5 0 0 1 370.5 337 L 370.5 398  A 4.5 4.5 0 0 1 366 402.5 L 149 402.5  A 4.5 4.5 0 0 1 144.5 398 L 144.5 337  Z " fill-rule="nonzero" fill="#ffffff" stroke="none" fill-opacity="0.874509803921569" />
      <path d="M 144.5 337  A 4.5 4.5 0 0 1 149 332.5 L 366 332.5  A 4.5 4.5 0 0 1 370.5 337 L 370.5 398  A 4.5 4.5 0 0 1 366 402.5 L 149 402.5  A 4.5 4.5 0 0 1 144.5 398 L 144.5 337  Z " stroke-width="1" stroke="#000000" fill="none" />
    </g>
  </defs>
  <g transform="matrix(1 0 0 1 -144 -332 )">
    <use xlink:href="#widget87" filter="url(#filter86)" />
    <use xlink:href="#widget87" />
  </g>
</svg>